HIERARCHY
ROOT root
{
	OFFSET 0.000000 0.000000 0.000000
	CHANNELS 6 Xposition Yposition Zposition Zrotation Yrotation Xrotation
	JOINT lhip
	{
		OFFSET 0.058581 -0.082280 -0.017664
		CHANNELS 3 Zrotation Yrotation Xrotation
		JOINT lknee
		{
			OFFSET 0.043451 -0.386469 0.008037
			CHANNELS 3 Zrotation Yrotation Xrotation
			JOINT lankle
			{
				OFFSET -0.014790 -0.426874 -0.037428
				CHANNELS 3 Zrotation Yrotation Xrotation
				JOINT ltoe
				{
					OFFSET 0.041054 -0.060286 0.122042
					CHANNELS 3 Zrotation Yrotation Xrotation
					End Site
					{
						OFFSET 0.000000 0.000000 0.000000
					}
				}
			}
		}
	}
	JOINT rhip
	{
		OFFSET -0.060310 -0.090513 -0.013543
		CHANNELS 3 Zrotation Yrotation Xrotation
		JOINT rknee
		{
			OFFSET -0.043257 -0.383688 -0.004843
			CHANNELS 3 Zrotation Yrotation Xrotation
			JOINT rankle
			{
				OFFSET 0.019056 -0.420046 -0.034562
				CHANNELS 3 Zrotation Yrotation Xrotation
				JOINT rtoe
				{
					OFFSET -0.034840 -0.062106 0.130323
					CHANNELS 3 Zrotation Yrotation Xrotation
					End Site
					{
						OFFSET 0.000000 0.000000 0.000000
					}
				}
			}
		}
	}
	JOINT lowerback
	{
		OFFSET 0.004439 0.124404 -0.038385
		CHANNELS 3 Zrotation Yrotation Xrotation
		JOINT upperback
		{
			OFFSET 0.004488 0.137956 0.026820
			CHANNELS 3 Zrotation Yrotation Xrotation
			JOINT chest
			{
				OFFSET -0.002265 0.056032 0.002855
				CHANNELS 3 Zrotation Yrotation Xrotation
				JOINT lowerneck
				{
					OFFSET -0.013390 0.211636 -0.033468
					CHANNELS 3 Zrotation Yrotation Xrotation
					JOINT upperneck
					{
						OFFSET 0.010113 0.088937 0.050410
						CHANNELS 3 Zrotation Yrotation Xrotation
						End Site
						{
							OFFSET 0.000000 0.000000 0.000000
						}
					}
				}
				JOINT lclavicle
				{
					OFFSET 0.071702 0.114000 -0.018898
					CHANNELS 3 Zrotation Yrotation Xrotation
					JOINT lshoulder
					{
						OFFSET 0.122921 0.045205 -0.019046
						CHANNELS 3 Zrotation Yrotation Xrotation
						JOINT lelbow
						{
							OFFSET 0.255332 -0.015649 -0.022946
							CHANNELS 3 Zrotation Yrotation Xrotation
							JOINT lwrist
							{
								OFFSET 0.265709 0.012698 -0.007375
								CHANNELS 3 Zrotation Yrotation Xrotation
								End Site
								{
									OFFSET 0.000000 0.000000 0.000000
								}
							}
						}
					}
				}
				JOINT rclavicle
				{
					OFFSET -0.082954 0.112472 -0.023707
					CHANNELS 3 Zrotation Yrotation Xrotation
					JOINT rshoulder
					{
						OFFSET -0.113228 0.046853 -0.008472
						CHANNELS 3 Zrotation Yrotation Xrotation
						JOINT relbow
						{
							OFFSET -0.260127 -0.014369 -0.031269
							CHANNELS 3 Zrotation Yrotation Xrotation
							JOINT rwrist
							{
								OFFSET -0.269108 0.006794 -0.006027
								CHANNELS 3 Zrotation Yrotation Xrotation
								End Site
								{
									OFFSET 0.000000 0.000000 0.000000
								}
							}
						}
					}
				}
			}
		}
	}
}
MOTION
Frames: 17
Frame Time: 0.033333
0.306725 -0.320307 0.947257 171.779237 3.365235 91.022570 11.611863 1.895124 -20.056028 -4.062980 3.411316 31.670046 0.961698 3.248621 -17.820012 0.000000 -0.000000 0.000000 -3.794215 -1.602952 -22.579130 0.115778 -5.340027 27.272503 3.477816 5.749973 -12.697045 0.000000 -0.000000 0.000000 -0.611769 2.558005 17.683133 0.691595 -4.683907 10.069220 0.112202 -1.053897 -4.117391 2.876459 16.342986 23.530342 3.856678 7.308390 17.730357 -17.134405 -25.375963 3.874237 -74.686722 -26.208969 23.275502 2.796057 -23.338702 8.828866 -17.681349 -1.468064 -29.750482 15.359146 22.574531 6.936812 76.060523 25.622195 22.888387 -10.011126 23.481388 -7.957202 3.220100 -0.902373 -51.943386 
0.305093 -0.320256 0.947401 172.531162 3.150921 91.132789 11.308043 1.608542 -20.295392 -4.198782 3.228937 31.598551 0.966726 2.985044 -17.772622 0.000000 -0.000000 0.000000 -4.164664 -1.954036 -22.506657 0.022246 -5.533937 27.203426 3.665030 5.621463 -12.697261 0.000000 -0.000000 0.000000 -0.466676 2.714257 17.676222 0.737886 -4.730904 10.028266 0.143150 -1.080755 -4.065941 2.924988 16.125994 23.426528 3.821442 7.071788 17.659035 -17.030198 -25.260396 3.812368 -74.790843 -26.184833 23.446572 2.908030 -23.612205 8.692058 -17.052927 -0.798405 -29.837593 15.447345 22.431428 6.873021 76.104719 25.718355 22.981126 -9.996439 23.385664 -8.395495 2.929209 -1.145348 -51.701007 
0.303903 -0.320254 0.947449 173.295576 3.093205 91.232421 11.217130 1.479091 -20.528921 -4.362172 2.825741 31.607476 0.855188 2.353603 -17.779923 0.000000 -0.000000 0.000000 -4.304833 -2.018087 -22.421217 -0.115392 -5.699048 27.171608 3.712523 5.153752 -12.777599 0.000000 -0.000000 0.000000 -0.383089 2.812897 17.655503 0.894927 -4.705118 10.113455 0.229548 -0.930993 -4.115367 3.011700 15.827152 23.298991 3.861971 6.818970 17.739511 -16.930564 -25.336759 3.802870 -74.900353 -26.218179 23.482060 2.859423 -23.604157 8.523882 -17.281995 -1.121467 -30.053534 15.384865 22.650348 7.004794 76.006091 25.671670 22.856961 -10.244571 23.411268 -8.544097 3.414120 -0.793359 -51.327277 
0.302257 -0.320028 0.947692 174.293532 2.910366 91.273613 10.907309 1.350020 -20.715950 -4.638567 2.661941 31.411131 1.088258 2.264188 -17.529400 0.000000 -0.000000 0.000000 -4.678466 -2.494145 -22.245989 -0.124032 -5.972553 27.210067 3.732708 4.854886 -12.843875 0.000000 -0.000000 0.000000 -0.148422 2.891087 17.686733 0.962437 -4.784492 10.105148 0.207201 -0.883711 -3.991876 2.960944 15.408483 23.255089 4.089772 6.600149 17.512383 -16.891601 -25.363726 3.717389 -74.861368 -26.232277 23.659600 2.575200 -23.512804 8.860602 -16.211279 -0.745344 -30.783694 15.448913 22.707424 7.029823 75.980494 25.686485 22.808815 -10.345020 23.428037 -8.548059 3.371410 -0.825847 -51.380420 
0.300612 -0.320265 0.947744 175.213217 2.764398 91.416508 10.659707 1.078512 -21.011206 -4.932746 1.973324 31.324507 1.103452 1.995146 -17.399167 0.000000 -0.000000 0.000000 -4.868643 -2.735262 -22.234035 -0.350876 -6.026149 27.206194 3.157160 4.110536 -13.107998 0.000000 -0.000000 0.000000 0.073779 3.022864 17.693065 1.029520 -4.687043 9.941219 0.279135 -0.913859 -3.783760 2.777814 14.906517 23.065370 4.262430 6.514412 17.439360 -16.774928 -25.343358 3.601708 -74.986747 -26.139486 23.874872 2.576971 -23.809744 8.679709 -15.119182 0.001179 -31.541261 15.352249 22.772278 6.919865 75.940211 25.695035 22.818322 -10.246411 23.445719 -8.598609 3.349958 -0.807089 -51.424508 
0.298969 -0.320116 0.948064 176.388687 2.471615 91.459015 10.241332 0.746809 -21.195735 -5.214985 1.544476 31.114969 1.150329 1.716584 -17.204727 0.000000 -0.000000 0.000000 -5.358818 -3.120362 -21.975763 -0.519011 -6.490193 27.182699 2.983568 3.782237 -13.292498 0.000000 -0.000000 0.000000 0.233642 3.125523 17.710835 1.083914 -4.781266 9.974343 0.312980 -0.878210 -3.707017 2.766973 14.396591 22.951534 4.357033 6.102657 17.467911 -16.789527 -25.405363 3.525433 -74.949079 -26.067823 23.917372 2.622589 -23.719234 8.403937 -14.905759 -0.354960 -31.079324 15.478304 22.904390 6.822649 75.771405 25.586046 22.737603 -10.268942 23.395619 -8.908188 3.673608 -0.647220 -51.092603 
0.296872 -0.319989 0.948312 177.416815 2.298433 91.520653 9.894222 0.516731 -21.324248 -5.309734 1.268709 30.832254 1.146442 1.236934 -16.986531 0.000000 -0.000000 0.000000 -5.735582 -3.508221 -21.748384 -0.607933 -6.792750 27.074541 3.076612 3.497765 -13.245259 0.000000 -0.000000 0.000000 0.513804 3.247538 17.812712 1.146259 -4.728901 9.849988 0.360124 -0.797590 -3.704560 2.825646 13.828650 23.022920 4.368090 5.721139 17.343505 -16.782455 -25.413871 3.556787 -75.097280 -26.193006 23.890646 2.973151 -23.432718 8.344643 -15.765381 -0.641504 -31.283617 15.349813 22.962166 6.924766 75.717175 25.573028 22.643659 -10.288855 23.485304 -8.880216 3.630562 -0.802286 -50.885344 
0.294840 -0.320176 0.948835 178.534555 2.070870 91.577155 9.445180 0.188625 -21.442375 -5.452654 0.529508 30.520806 1.068029 0.818539 -16.684616 0.000000 -0.000000 0.000000 -6.082812 -3.856907 -21.531915 -0.852828 -7.102499 26.998431 3.159143 3.077835 -13.283174 0.000000 -0.000000 0.000000 0.832647 3.386924 17.858371 1.199482 -4.715919 9.831083 0.351870 -0.788844 -3.643410 2.784222 13.331281 23.110860 4.466332 5.479774 17.070047 -16.861072 -25.476792 3.559176 -74.942026 -26.174352 24.060589 2.788718 -23.469796 8.763573 -15.414950 -0.889139 -31.809541 15.462148 23.083647 6.854756 75.633670 25.552108 22.541666 -10.429084 23.298692 -9.015771 4.044289 -0.634885 -50.783998 
0.292951 -0.320256 0.949357 179.718484 1.886689 91.699544 9.079648 0.077775 -21.651278 -5.618725 0.254767 30.153697 1.161479 0.364901 -16.345799 0.000000 -0.000000 0.000000 -6.449449 -4.311289 -21.255097 -0.922705 -7.515701 26.752241 3.099037 2.721187 -13.253205 0.000000 -0.000000 0.000000 1.118039 3.457945 17.914972 1.268169 -4.698224 9.736792 0.426149 -0.670145 -3.657784 2.708805 12.682162 23.106321 4.519931 5.275085 17.001866 -16.919113 -25.384121 3.475994 -75.017008 -26.084153 24.131642 2.828629 -23.719065 8.694513 -15.273597 -0.066849 -31.472973 15.523468 23.229420 6.999980 75.316461 25.507375 22.413169 -10.223608 23.544720 -9.191717 3.869130 -1.119961 -50.423724 
0.290951 -0.320248 0.949897 -179.071725 1.562051 91.869863 8.555937 -0.309061 -21.779766 -5.687830 -0.280083 29.612815 1.174198 -0.148131 -15.956203 0.000000 -0.000000 0.000000 -6.964366 -4.810477 -20.990372 -1.039571 -7.927253 26.479039 3.183932 2.420476 -13.218010 0.000000 -0.000000 0.000000 1.282256 3.661606 17.699271 1.376153 -4.737416 9.788219 0.470505 -0.546964 -3.537323 2.687632 12.144690 23.176381 4.714605 4.756268 16.644086 -16.895007 -25.430938 3.494895 -74.969707 -26.248236 24.283897 2.591222 -23.713294 8.973109 -15.150919 0.112297 -31.236436 15.492100 23.263794 6.957696 75.262471 25.462285 22.304288 -10.440544 23.567197 -9.531471 3.879758 -0.700321 -50.616032 
0.288876 -0.320472 0.950773 -177.785053 1.321547 92.042168 8.127021 -0.605786 -21.934849 -5.853980 -0.398069 28.906556 1.144910 -0.396134 -15.391871 0.000000 -0.000000 0.000000 -7.398525 -5.305204 -20.686777 -1.217277 -8.506300 26.155450 3.341706 2.217315 -13.080215 0.000000 -0.000000 0.000000 1.579620 3.814202 17.612024 1.463842 -4.811701 9.963353 0.559271 -0.547533 -3.749183 2.684243 11.570157 23.189851 4.699472 4.577409 16.764718 -16.954493 -25.339910 3.383466 -75.216703 -26.180207 24.273544 2.742639 -23.696038 8.339353 -14.773711 0.821999 -30.478444 15.507646 23.316277 6.961526 75.060240 25.538064 22.061609 -10.238526 23.434425 -9.886893 4.623220 -0.278576 -50.252746 
0.286815 -0.320481 0.951511 -176.641262 1.053453 92.088995 7.635998 -0.609405 -21.927916 -5.868007 -0.805677 28.383058 0.903159 -1.023662 -15.086050 0.000000 -0.000000 0.000000 -7.655583 -5.753296 -20.208814 -1.628176 -8.777909 25.707448 3.491577 1.898375 -12.951247 0.000000 -0.000000 0.000000 1.852320 3.933365 17.717202 1.477067 -4.775918 9.893691 0.625111 -0.405034 -3.786043 2.635747 11.036980 23.242317 4.844164 4.357854 16.618529 -16.842178 -25.352191 3.265278 -75.397827 -26.025492 24.283619 2.917103 -23.830589 8.579377 -14.942536 0.918965 -30.548775 15.544533 23.594611 6.991478 74.851654 25.353695 21.895478 -10.249708 23.689165 -9.847200 4.806570 -0.447995 -50.071064 
0.284990 -0.320986 0.952459 -175.722984 0.766667 92.247893 7.206510 -0.799726 -21.884426 -6.009774 -0.985524 27.509760 0.952444 -1.431805 -14.540914 0.000000 -0.000000 0.000000 -8.087259 -5.929023 -19.931780 -1.835778 -9.257639 25.279720 3.697325 1.706879 -12.642148 0.000000 -0.000000 0.000000 1.980802 4.067227 17.717478 1.568129 -4.583794 9.868576 0.680347 -0.234651 -3.890467 2.741862 10.635825 23.319721 4.878238 3.884826 16.283318 -16.833419 -25.271951 3.240906 -75.453362 -26.013630 24.529689 2.913984 -23.934671 8.808154 -15.186795 0.768326 -30.756134 15.537060 23.692012 6.988329 74.969825 25.475494 21.971248 -10.505691 23.247607 -10.030177 5.267752 -0.097324 -49.947535 
0.282751 -0.321262 0.952923 -174.554344 0.478006 92.551191 6.735396 -1.100752 -22.147634 -6.021969 -1.348868 26.918985 0.810773 -2.024763 -14.098726 0.000000 -0.000000 0.000000 -8.583395 -6.571026 -19.713871 -1.854624 -9.736583 24.836265 3.808405 1.559689 -12.506987 0.000000 -0.000000 0.000000 2.310591 4.374535 17.401201 1.642506 -4.638632 9.679394 0.733648 -0.253356 -3.652372 2.760411 10.346766 23.374184 4.988215 3.636212 16.197708 -16.758669 -25.283638 3.211070 -75.603124 -26.128632 24.591409 2.863972 -23.862894 8.659534 -15.887027 0.440966 -30.699660 15.421450 23.536662 7.024771 74.834042 25.518175 21.788292 -10.323631 23.620764 -10.182246 5.393973 -0.433314 -49.865847 
0.280878 -0.321548 0.953774 -173.648299 0.299804 92.630000 6.297585 -1.217836 -22.075702 -5.987699 -1.886203 26.254090 0.654401 -2.336199 -13.736312 0.000000 -0.000000 0.000000 -8.811294 -7.008212 -19.388314 -2.147548 -10.153862 24.542405 4.119934 1.676561 -12.414412 0.000000 -0.000000 0.000000 2.593395 4.629411 17.587477 1.680316 -4.516988 9.160393 0.912830 -0.229726 -3.443559 2.704496 9.980056 23.679213 5.068058 3.614403 15.697175 -16.932490 -25.334491 3.276191 -75.469620 -26.074140 24.670970 2.711956 -24.005990 9.151028 -15.610065 0.662994 -30.614365 15.423717 23.638347 7.095095 74.617477 25.352132 21.619698 -10.027130 23.953126 -10.234228 4.247128 -0.598917 -50.583991 
0.279617 -0.322015 0.954165 -172.815967 0.112499 92.699794 6.147465 -1.189545 -22.106770 -6.118591 -1.922267 25.749868 0.295597 -3.313105 -13.221835 0.000000 -0.000000 0.000000 -9.113310 -7.370201 -19.042894 -2.146546 -10.445135 24.112143 4.072394 1.603505 -12.222500 0.000000 -0.000000 0.000000 2.730318 4.775475 17.581563 1.785032 -4.482719 9.309727 0.976681 -0.138877 -3.652116 2.703466 9.830616 23.579269 5.068643 3.589273 15.504708 -16.759356 -25.297616 3.136552 -75.412031 -26.102476 24.691157 2.821426 -23.922298 9.260832 -15.235233 0.316313 -31.210448 15.514486 23.680925 7.192972 74.766435 25.515315 21.631521 -10.401900 23.705573 -10.617270 4.579612 -0.455206 -50.355710 
0.278420 -0.322430 0.954477 -171.947780 -0.103971 92.817216 5.874008 -1.430691 -22.196152 -6.298228 -2.322380 25.343604 0.214521 -3.616853 -12.962773 0.000000 -0.000000 0.000000 -9.445253 -7.825484 -18.754990 -2.167080 -10.813578 23.707065 4.233638 1.363594 -12.035279 0.000000 -0.000000 0.000000 2.915688 5.007527 17.564326 1.878482 -4.511190 9.119711 0.998692 -0.173535 -3.640798 2.785965 9.918710 23.377472 5.166806 3.519854 15.737282 -16.487752 -25.415376 3.162395 -75.454468 -26.286718 24.840395 2.670345 -23.579188 8.487749 -14.177107 0.457078 -31.116499 15.608933 23.730476 7.115761 74.799706 25.363503 21.795905 -10.567349 23.670716 -11.193299 4.509958 -0.519132 -50.212609 
